<svg width="24" height="25" fill="none" xmlns="http://www.w3.org/2000/svg"><g id="Assets / Social / Facebook" clip-path="url(#clip0_22724_9607)"><path id="Vector" d="M22.675.89H1.325C.593.89 0 1.484 0 2.216v21.351c0 .732.593 1.325 1.325 1.325h11.494v-9.294H9.69v-3.621h3.129V9.3c0-3.099 1.893-4.785 4.659-4.785 1.324 0 2.463.096 2.794.141v3.24h-1.92c-1.5 0-1.792.72-1.792 1.77v2.31h3.585l-.465 3.63h-3.12v9.284h6.116c.732 0 1.324-.593 1.324-1.325V2.216C24 1.482 23.407.89 22.675.89z" fill="#435695"/></g><defs><clipPath id="clip0_22724_9607"><path fill="#fff" transform="translate(0 .89)" d="M0 0h24v24H0z"/></clipPath></defs></svg>