<svg width="12" height="14" viewBox="0 0 12 14" fill="none" xmlns="http://www.w3.org/2000/svg">
<path d="M5.80223 0.399999V13H2.88623V2.74H0.366234V0.399999H5.80223ZM9.64706 13.144C9.15506 13.144 8.74106 12.976 8.40506 12.64C8.06906 12.304 7.90106 11.884 7.90106 11.38C7.90106 10.864 8.06906 10.45 8.40506 10.138C8.74106 9.814 9.15506 9.652 9.64706 9.652C10.1391 9.652 10.5531 9.814 10.8891 10.138C11.2251 10.45 11.3931 10.864 11.3931 11.38C11.3931 11.884 11.2251 12.304 10.8891 12.64C10.5531 12.976 10.1391 13.144 9.64706 13.144Z" fill="#F0145A"/>
</svg>
