<svg width="16" height="14" viewBox="0 0 16 14" fill="none" xmlns="http://www.w3.org/2000/svg">
<path d="M10.6121 10.624V13H1.09009V11.11L5.95009 6.52C6.46609 6.028 6.81409 5.608 6.99409 5.26C7.17409 4.9 7.26409 4.546 7.26409 4.198C7.26409 3.694 7.09009 3.31 6.74209 3.046C6.40609 2.77 5.90809 2.632 5.24809 2.632C4.69609 2.632 4.19809 2.74 3.75409 2.956C3.31009 3.16 2.93809 3.472 2.63809 3.892L0.514094 2.524C1.00609 1.792 1.68409 1.222 2.54809 0.813999C3.41209 0.394 4.40209 0.184 5.51809 0.184C6.45409 0.184 7.27009 0.34 7.96609 0.651999C8.67409 0.952 9.22009 1.384 9.60409 1.948C10.0001 2.5 10.1981 3.154 10.1981 3.91C10.1981 4.594 10.0541 5.236 9.76609 5.836C9.47809 6.436 8.92009 7.12 8.09209 7.888L5.19409 10.624H10.6121ZM13.6471 13.144C13.1551 13.144 12.7411 12.976 12.4051 12.64C12.0691 12.304 11.9011 11.884 11.9011 11.38C11.9011 10.864 12.0691 10.45 12.4051 10.138C12.7411 9.814 13.1551 9.652 13.6471 9.652C14.1391 9.652 14.5531 9.814 14.8891 10.138C15.2251 10.45 15.3931 10.864 15.3931 11.38C15.3931 11.884 15.2251 12.304 14.8891 12.64C14.5531 12.976 14.1391 13.144 13.6471 13.144Z" fill="#F0145A"/>
</svg>
