<svg width="16" height="14" fill="none" xmlns="http://www.w3.org/2000/svg"><path d="M10.612 10.624V13H1.09v-1.89l4.86-4.59c.516-.492.864-.912 1.044-1.26.18-.36.27-.714.27-1.062 0-.504-.174-.888-.522-1.152-.336-.276-.834-.414-1.494-.414a3.37 3.37 0 00-1.494.324 2.788 2.788 0 00-1.116.936L.514 2.524c.492-.732 1.17-1.302 2.034-1.71.864-.42 1.854-.63 2.97-.63.936 0 1.752.156 2.448.468.708.3 1.254.732 1.638 1.296.396.552.594 1.206.594 1.962 0 .684-.144 1.326-.432 1.926-.288.6-.846 1.284-1.674 2.052l-2.898 2.736h5.418zm3.035 2.52c-.492 0-.906-.168-1.242-.504-.336-.336-.504-.756-.504-1.26 0-.516.168-.93.504-1.242a1.72 1.72 0 011.242-.486c.492 0 .906.162 1.242.486.336.312.504.726.504 1.242 0 .504-.168.924-.504 1.26-.336.336-.75.504-1.242.504z" fill="#F0145A"/></svg>